 http://www.shotpix.com/images/52788620666428179515.jpg

 
http://www.imdb.com/title/tt1614430/



Plot: With nothing more than a blazing spirit of philanthropy and his beat-up red wagon, Zach sets out to help homeless children in America. In the process, he sweeps his fractured family - and ultimately the entire country - along with him.
 


Director: 
David Anspaugh

 Writer: 
Patrick Sheane Duncan (screenplay)
 
Stars:
 Chandler Canterbury, Anna Gunn and Frances O'Connor 

Genres:
 Drama 

Country:
USA 

Language:
English



Format                                   : AVI
Format/Info                              : Audio Video Interleave
File size                                : 702 MiB
Duration                                 : 1h 43mn
Overall bit rate mode                    : Variable
Overall bit rate                         : 952 Kbps

Video
ID                                       : 0
Format                                   : MPEG-4 Visual
Format profile                           : Advanced Simple@L5
Format settings, BVOP                    : 1
Format settings, QPel                    : No
Format settings, GMC                     : No warppoints
Format settings, Matrix                  : Default (H.263)
Codec ID                                 : XVID
Codec ID/Hint                            : XviD
Duration                                 : 1h 43mn
Bit rate                                 : 805 Kbps
Width                                    : 640 pixels
Height                                   : 272 pixels
Display aspect ratio                     : 2.35:1
Frame rate                               : 23.976 fps
Color space                              : YUV
Chroma subsampling                       : 4:2:0
Bit depth                                : 8 bits
Scan type                                : Progressive
Compression mode                         : Lossy
Bits/(Pixel*Frame)                       : 0.193
Stream size                              : 594 MiB (85%)
Writing library                          : XviD 64

Audio
ID                                       : 1
Format                                   : MPEG Audio
Format version                           : Version 1
Format profile                           : Layer 3
Mode                                     : Joint stereo
Mode extension                           : MS Stereo
Codec ID                                 : 55
Codec ID/Hint                            : MP3
Duration                                 : 1h 43mn
Bit rate mode                            : Variable
Bit rate                                 : 135 Kbps
Nominal bit rate                         : 144 Kbps
Channel(s)                               : 2 channels
Sampling rate                            : 48.0 KHz
Compression mode                         : Lossy
Stream size                              : 99.3 MiB (14%)
Alignment                                : Aligned on interleaves
Interleave, duration                     : 24 ms (0.58 video frame)
Interleave, preload duration             : 131 ms
Writing library                          : LAME3.99r
Encoding settings                        : -m j -V 4 -q 2 -lowpass 17.5 --abr 144


 
http://www.shotpix.com/images/89661601921889794564.png 
http://www.shotpix.com/images/94388947951117037370.png 
http://www.shotpix.com/images/42497790723345659098.png 
http://www.shotpix.com/images/11717290637698461023.png
